PathFileType	4	(X/Y/Z)	/Users/itak/Documents/Research/Walk-IL/dataset/trc/00473_00167.trc
DataRate	CameraRate	NumFrames	NumMarkers	Units	OrigDataRate	OrigDataStartFrame	OrigNumFrames
100.000000	100.000000	4	53	mm	100.000000	0	575
Frame#	Time	RPSI			LPSI			L3			STRN			T10			C7			CLAV			RBAK			LBAK			LSHO			LUPA			LAEL			LAOL			LWTS			LWPS			LFRA			LIFD			LHPS			LHTS			RSHO			RUPA			RAEL			RAOL			RWTS			RWPS			RFRA			RIFD			RHTS			RHPS			RBHD			LFHD			RFHD			LBHD			LHIP			RHIP			RASI			LASI			LKNE			LTHI			LANK			LTIP			LTOE			LMT1			LMT5			LHEE			RKNE			RTHI			RANK			RTIP			RTOE			RMT1			RMT5			RHEE			
		X1	Y1	Z1	X2	Y2	Z2	X3	Y3	Z3	X4	Y4	Z4	X5	Y5	Z5	X6	Y6	Z6	X7	Y7	Z7	X8	Y8	Z8	X9	Y9	Z9	X10	Y10	Z10	X11	Y11	Z11	X12	Y12	Z12	X13	Y13	Z13	X14	Y14	Z14	X15	Y15	Z15	X16	Y16	Z16	X17	Y17	Z17	X18	Y18	Z18	X19	Y19	Z19	X20	Y20	Z20	X21	Y21	Z21	X22	Y22	Z22	X23	Y23	Z23	X24	Y24	Z24	X25	Y25	Z25	X26	Y26	Z26	X27	Y27	Z27	X28	Y28	Z28	X29	Y29	Z29	X30	Y30	Z30	X31	Y31	Z31	X32	Y32	Z32	X33	Y33	Z33	X34	Y34	Z34	X35	Y35	Z35	X36	Y36	Z36	X37	Y37	Z37	X38	Y38	Z38	X39	Y39	Z39	X40	Y40	Z40	X41	Y41	Z41	X42	Y42	Z42	X43	Y43	Z43	X44	Y44	Z44	X45	Y45	Z45	X46	Y46	Z46	X47	Y47	Z47	X48	Y48	Z48	X49	Y49	Z49	X50	Y50	Z50	X51	Y51	Z51	X52	Y52	Z52	X53	Y53	Z53	

1	0	-1291.596801757812	966.8506469726562	-470.4309692382812	-1276.8095703125	963.3660278320312	-610.1561279296875	-1273.276611328125	1054.4765625	-523.5480346679688	-1004.793334960938	1254.895385742188	-515.0470581054688	-1292.555053710938	1179.62939453125	-527.9932861328125	-1229.912231445312	1448.832763671875	-510.1445617675781	-1044.299682617188	1367.113037109375	-521.1209716796875	-1296.0146484375	1328.920043945312	-420.6413269042969	-1261.092529296875	1402.1904296875	-610.0892333984375	-1157.689208984375	1425.042358398438	-686.8757934570312	-1169.9775390625	1309.053100585938	-786.9053344726562	-1151.252197265625	1098.994995117188	-832.4439697265625	-1215.032104492188	1080.319213867188	-754.0328979492188	-1064.569091796875	899.0205078125	-827.1484375	-1125.868530273438	884.6080322265625	-870.4151611328125	-1134.242919921875	1013.226684570312	-852.7858276367188	-1053.259155273438	745.0792236328125	-862.1807250976562	-1115.406860351562	811.7192993164062	-882.9309692382812	-1049.642211914062	818.5198974609375	-852.5534057617188	-1166.026611328125	1418.078491210938	-349.6490783691406	-1185.421142578125	1359.318481445312	-273.2094421386719	-1182.11376953125	1074.645263671875	-212.4633483886719	-1231.709716796875	1059.69091796875	-256.1194763183594	-1092.37939453125	862.4085693359375	-233.4661712646484	-1169.543701171875	853.6203002929688	-187.5422821044922	-1183.051147460938	1017.032165527344	-200.1996307373047	-1102.831909179688	705.18896484375	-214.2057800292969	-1086.232299804688	764.0337524414062	-213.8825531005859	-1158.9462890625	769.2227172851562	-180.8921661376953	-1153.837890625	1645.452392578125	-420.4714050292969	-1007.749084472656	1664.056274414062	-566.7803955078125	-1017.429931640625	1663.638793945312	-436.2578735351562	-1157.529541015625	1650.571044921875	-598.015380859375	-1132.827270507812	863.3426513671875	-716.9037475585938	-1193.480834960938	861.5518798828125	-324.4486389160156	-1078.466796875	899.76513671875	-370.7435913085938	-1041.76025390625	897.3553466796875	-628.5931396484375	-1151.82177734375	446.2958068847656	-691.1502685546875	-1117.265014648438	595.8672485351562	-706.3576049804688	-1228.126220703125	41.57511520385742	-700.0005493164062	-1161.797485351562	301.1888122558594	-708.0029296875	-1006.836547851562	43.21891021728516	-602.3050537109375	-1084.01513671875	50.28591537475586	-583.5880737304688	-1074.125854492188	45.11944198608398	-697.3035278320312	-1280.5849609375	47.041748046875	-643.146240234375	-1187.24169921875	470.24609375	-339.8539428710938	-1155.177368164062	728.4440307617188	-306.6161499023438	-1251.094970703125	46.27203369140625	-333.3250122070312	-1193.20458984375	328.5492248535156	-326.6371154785156	-1033.286743164062	48.07705307006836	-360.9750671386719	-1092.902954101562	52.71634292602539	-401.9534606933594	-1121.630615234375	48.34549331665039	-295.4679565429688	-1312.321655273438	39.72010040283203	-382.4718627929688	
2	0.01	-1291.724609375	966.8563232421875	-470.45263671875	-1276.949829101562	963.3717041015625	-610.2262573242188	-1273.397216796875	1054.447265625	-523.6019897460938	-1005.090209960938	1254.894165039062	-515.198486328125	-1292.644897460938	1179.626953125	-527.98828125	-1230.0615234375	1448.831298828125	-510.21044921875	-1044.441650390625	1367.107788085938	-521.357666015625	-1296.11572265625	1328.920532226562	-420.6629333496094	-1261.3466796875	1402.14794921875	-610.0802001953125	-1158.031982421875	1425.02685546875	-687.0313110351562	-1170.58740234375	1308.84814453125	-786.8843994140625	-1151.888671875	1098.75830078125	-832.1407470703125	-1215.6201171875	1080.274291992188	-753.5686645507812	-1065.672485351562	898.510498046875	-826.605224609375	-1127.009643554688	884.2722778320312	-869.8192749023438	-1135.09619140625	1012.91162109375	-852.363525390625	-1054.80419921875	744.4192504882812	-861.4345092773438	-1116.654663085938	811.205078125	-882.1887817382812	-1050.916259765625	817.964111328125	-851.8347778320312	-1166.086791992188	1418.057006835938	-349.7255859375	-1185.434204101562	1359.287719726562	-273.2873229980469	-1182.171630859375	1074.579833984375	-212.6599884033203	-1231.807250976562	1059.65771484375	-256.3046569824219	-1092.474731445312	862.3613891601562	-233.8153533935547	-1169.611328125	853.5719604492188	-187.8483734130859	-1183.133056640625	1016.9794921875	-200.4043426513672	-1102.86474609375	705.16552734375	-214.5204010009766	-1086.345825195312	764.0107421875	-214.1470794677734	-1159.015258789062	769.14013671875	-181.1139678955078	-1154.138549804688	1645.4677734375	-420.6589050292969	-1007.962890625	1664.125366210938	-566.9352416992188	-1017.698974609375	1663.685180664062	-436.3741455078125	-1157.666748046875	1650.523559570312	-598.1602172851562	-1133.058471679688	863.30322265625	-717.0445556640625	-1193.52783203125	861.5585327148438	-324.562744140625	-1078.517333984375	899.784423828125	-370.9267883300781	-1041.845581054688	897.4152221679688	-628.6380004882812	-1151.951049804688	446.276123046875	-691.2297973632812	-1117.479248046875	595.8988647460938	-706.4595947265625	-1228.129028320312	41.57600784301758	-699.9840698242188	-1161.843994140625	301.1820983886719	-708.0256958007812	-1006.84423828125	43.22805404663086	-602.3055419921875	-1084.012451171875	50.30109024047852	-583.6075439453125	-1074.127807617188	45.12033843994141	-697.314453125	-1280.588745117188	47.03082656860352	-643.1345825195312	-1187.25927734375	470.2552490234375	-339.9253540039062	-1155.242309570312	728.460693359375	-306.6661376953125	-1251.096069335938	46.28914260864258	-333.3368835449219	-1193.199951171875	328.5559997558594	-326.6905517578125	-1033.2841796875	48.07512664794922	-360.9806823730469	-1092.90869140625	52.71227645874023	-401.9607849121094	-1121.625244140625	48.35063171386719	-295.4791564941406	-1312.32470703125	39.72335052490234	-382.4859008789062	
3	0.02	-1291.879272460938	966.861572265625	-470.4890747070312	-1277.129760742188	963.3738403320312	-610.3132934570312	-1273.550048828125	1054.410034179688	-523.6693725585938	-1005.487548828125	1254.891479492188	-515.408203125	-1292.760864257812	1179.630981445312	-527.9843139648438	-1230.24755859375	1448.82666015625	-510.2890930175781	-1044.6259765625	1367.093505859375	-521.6405029296875	-1296.2431640625	1328.924926757812	-420.6849975585938	-1261.66162109375	1402.096923828125	-610.0698852539062	-1158.449829101562	1424.996948242188	-687.2125244140625	-1171.313354492188	1308.601806640625	-786.8662719726562	-1152.6943359375	1098.45166015625	-831.7583618164062	-1216.368408203125	1080.21044921875	-753.0018310546875	-1067.046020507812	897.8821411132812	-825.9203491210938	-1128.41943359375	883.8590698242188	-869.0691528320312	-1136.1591796875	1012.510620117188	-851.84033203125	-1056.693481445312	743.6326904296875	-860.4810180664062	-1118.21435546875	810.5839233398438	-881.2662353515625	-1052.498779296875	817.2801513671875	-850.9495849609375	-1166.151489257812	1418.033325195312	-349.8226928710938	-1185.440307617188	1359.251342773438	-273.3842468261719	-1182.226684570312	1074.4990234375	-212.9169616699219	-1231.922729492188	1059.621826171875	-256.5281982421875	-1092.583740234375	862.305419921875	-234.2605743408203	-1169.680419921875	853.5074462890625	-188.2416229248047	-1183.218505859375	1016.910949707031	-200.6738586425781	-1102.896850585938	705.1337890625	-214.9349060058594	-1086.455444335938	763.9807739257812	-214.5205383300781	-1159.074951171875	769.0343017578125	-181.4247741699219	-1154.497924804688	1645.482543945312	-420.8887939453125	-1008.233093261719	1664.211059570312	-567.1302490234375	-1018.0205078125	1663.7421875	-436.5262756347656	-1157.858032226562	1650.471313476562	-598.3599853515625	-1133.343139648438	863.2587890625	-717.2174682617188	-1193.585083007812	861.5633544921875	-324.7054138183594	-1078.559448242188	899.8045043945312	-371.1490783691406	-1041.970458984375	897.4749755859375	-628.7166137695312	-1152.121337890625	446.2526550292969	-691.337890625	-1117.740966796875	595.9408569335938	-706.59326171875	-1228.133544921875	41.57601928710938	-699.9671020507812	-1161.904174804688	301.1740112304688	-708.05126953125	-1006.854614257812	43.23960113525391	-602.3073120117188	-1084.012573242188	50.3172492980957	-583.6331787109375	-1074.129028320312	45.1212272644043	-697.3267211914062	-1280.592163085938	47.01620483398438	-643.1203002929688	-1187.270629882812	470.2627563476562	-340.0194702148438	-1155.316162109375	728.4781494140625	-306.7398071289062	-1251.094604492188	46.30558395385742	-333.3540344238281	-1193.187744140625	328.5621337890625	-326.7641296386719	-1033.280639648438	48.07294082641602	-360.988037109375	-1092.912231445312	52.70736694335938	-401.9700012207031	-1121.618041992188	48.35671615600586	-295.4950561523438	-1312.328979492188	39.72831726074219	-382.5038452148438	
4	0.03	-1292.05322265625	966.8652954101562	-470.5425109863281	-1277.344604492188	963.3711547851562	-610.4133911132812	-1273.729858398438	1054.3671875	-523.7470703125	-1005.976257324219	1254.888061523438	-515.6766357421875	-1292.898193359375	1179.64404296875	-527.982421875	-1230.462646484375	1448.818237304688	-510.3746643066406	-1044.847290039062	1367.068359375	-521.9495849609375	-1296.390991210938	1328.935302734375	-420.704833984375	-1262.0234375	1402.041259765625	-610.0596923828125	-1158.920654296875	1424.9501953125	-687.4077758789062	-1172.111328125	1308.328735351562	-786.8562622070312	-1153.637573242188	1098.0849609375	-831.3124389648438	-1217.250610351562	1080.128051757812	-752.3616333007812	-1068.63818359375	897.1668090820312	-825.1215209960938	-1130.029418945312	883.3880004882812	-868.1953735351562	-1137.383666992188	1012.040832519531	-851.2401733398438	-1058.831665039062	742.7661743164062	-859.3564453125	-1120.012451171875	809.8895263671875	-880.20361328125	-1054.31103515625	816.503173828125	-849.9389038085938	-1166.21435546875	1418.009765625	-349.9364929199219	-1185.43310546875	1359.212280273438	-273.4958801269531	-1182.268432617188	1074.40625	-213.2297515869141	-1232.046142578125	1059.586669921875	-256.780029296875	-1092.697875976562	862.2450561523438	-234.7906188964844	-1169.7421875	853.4268188476562	-188.7094421386719	-1183.295654296875	1016.827880859375	-201.0034484863281	-1102.920166015625	705.0939331054688	-215.4459838867188	-1086.541870117188	763.947021484375	-215.0057678222656	-1159.110107421875	768.9088134765625	-181.8286895751953	-1154.889526367188	1645.492919921875	-421.148193359375	-1008.548889160156	1664.3095703125	-567.357666015625	-1018.373168945312	1663.808227539062	-436.7131042480469	-1158.10400390625	1650.420654296875	-598.6121215820312	-1133.66748046875	863.2140502929688	-717.4121704101562	-1193.650268554688	861.5656127929688	-324.8692016601562	-1078.585327148438	899.8235473632812	-371.396484375	-1042.1337890625	897.527099609375	-628.8347778320312	-1152.326782226562	446.2294616699219	-691.4727783203125	-1118.039916992188	595.9912109375	-706.7564086914062	-1228.140380859375	41.57449340820312	-699.9518432617188	-1161.978637695312	301.1640930175781	-708.0797119140625	-1006.867980957031	43.25347137451172	-602.3109130859375	-1084.016235351562	50.33353805541992	-583.6635131835938	-1074.12939453125	45.12217330932617	-697.3399658203125	-1280.594604492188	46.99825286865234	-643.104736328125	-1187.270141601562	470.2648620605469	-340.1375122070312	-1155.390869140625	728.4946899414062	-306.8409729003906	-1251.0908203125	46.32089996337891	-333.376220703125	-1193.16650390625	328.5664367675781	-326.8565673828125	-1033.2763671875	48.07058334350586	-360.9964294433594	-1092.912719726562	52.70184707641602	-401.9811096191406	-1121.609741210938	48.36278533935547	-295.5155334472656	-1312.334594726562	39.73516845703125	-382.5242309570312	
